<mxfile host="Electron" modified="2023-10-19T21:04:28.457Z" agent="Mozilla/5.0 (Windows NT 10.0; Win64; x64) AppleWebKit/537.36 (KHTML, like Gecko) draw.io/22.0.2 Chrome/114.0.5735.289 Electron/25.8.4 Safari/537.36" etag="jvs_EVxXzKHBymYCDW6Y" version="22.0.2" type="device">
  <diagram name="Page-1" id="2KcI9znNZmWE5_TYzei8">
    <mxGraphModel dx="893" dy="524" grid="1" gridSize="10" guides="1" tooltips="1" connect="1" arrows="1" fold="1" page="1" pageScale="1" pageWidth="1100" pageHeight="850" math="0" shadow="0">
      <root>
        <mxCell id="0" />
        <mxCell id="1" parent="0" />
        <mxCell id="kAhJ4lf6lbI_TRl07def-1" value="" style="endArrow=none;html=1;rounded=0;strokeWidth=5;" parent="1" edge="1">
          <mxGeometry width="50" height="50" relative="1" as="geometry">
            <mxPoint x="400" y="480" as="sourcePoint" />
            <mxPoint x="400" y="280" as="targetPoint" />
          </mxGeometry>
        </mxCell>
        <mxCell id="kAhJ4lf6lbI_TRl07def-2" value="" style="endArrow=none;html=1;rounded=0;strokeWidth=5;" parent="1" edge="1">
          <mxGeometry width="50" height="50" relative="1" as="geometry">
            <mxPoint x="400" y="480" as="sourcePoint" />
            <mxPoint x="600" y="480" as="targetPoint" />
          </mxGeometry>
        </mxCell>
        <mxCell id="kAhJ4lf6lbI_TRl07def-3" value="" style="endArrow=classic;html=1;rounded=0;strokeColor=#808080;strokeWidth=3;entryX=0.959;entryY=0.311;entryDx=0;entryDy=0;entryPerimeter=0;" parent="1" edge="1">
          <mxGeometry width="50" height="50" relative="1" as="geometry">
            <mxPoint x="400" y="480" as="sourcePoint" />
            <mxPoint x="565.2399999999998" y="411.96000000000004" as="targetPoint" />
          </mxGeometry>
        </mxCell>
        <mxCell id="kAhJ4lf6lbI_TRl07def-4" value="" style="endArrow=classic;html=1;rounded=0;strokeColor=#FF8000;strokeWidth=3;entryX=0.799;entryY=0.107;entryDx=0;entryDy=0;entryPerimeter=0;" parent="1" edge="1">
          <mxGeometry width="50" height="50" relative="1" as="geometry">
            <mxPoint x="400" y="480" as="sourcePoint" />
            <mxPoint x="507.6399999999999" y="338.52" as="targetPoint" />
          </mxGeometry>
        </mxCell>
        <mxCell id="kAhJ4lf6lbI_TRl07def-8" value="" style="verticalLabelPosition=bottom;verticalAlign=top;html=1;shape=mxgraph.basic.arc;startAngle=0.05222190321847961;endAngle=0.28078491517508236;dashed=1;strokeWidth=3;" parent="1" vertex="1">
          <mxGeometry x="420" y="365" width="105" height="105" as="geometry" />
        </mxCell>
        <mxCell id="kAhJ4lf6lbI_TRl07def-9" value="&lt;font style=&quot;font-size: 20px;&quot; face=&quot;CMU Sans Serif&quot;&gt;θ&lt;/font&gt;" style="text;html=1;strokeColor=none;fillColor=none;align=center;verticalAlign=middle;whiteSpace=wrap;rounded=0;" parent="1" vertex="1">
          <mxGeometry x="520" y="360" width="20" height="30" as="geometry" />
        </mxCell>
        <mxCell id="kAhJ4lf6lbI_TRl07def-11" value="&lt;font style=&quot;font-size: 20px;&quot; face=&quot;CMU Sans Serif&quot;&gt;(x,y)&lt;/font&gt;" style="text;html=1;strokeColor=none;fillColor=none;align=center;verticalAlign=middle;whiteSpace=wrap;rounded=0;" parent="1" vertex="1">
          <mxGeometry x="570" y="390" width="50" height="30" as="geometry" />
        </mxCell>
        <mxCell id="kAhJ4lf6lbI_TRl07def-12" value="&lt;font style=&quot;font-size: 20px;&quot; face=&quot;CMU Sans Serif&quot;&gt;(x&#39;,y&#39;)&lt;/font&gt;" style="text;html=1;strokeColor=none;fillColor=none;align=center;verticalAlign=middle;whiteSpace=wrap;rounded=0;" parent="1" vertex="1">
          <mxGeometry x="480" y="300" width="50" height="30" as="geometry" />
        </mxCell>
        <mxCell id="kAhJ4lf6lbI_TRl07def-13" value="&lt;font style=&quot;font-size: 20px;&quot; face=&quot;CMU Sans Serif&quot;&gt;&lt;b&gt;r&lt;/b&gt;&lt;/font&gt;" style="text;html=1;strokeColor=none;fillColor=none;align=center;verticalAlign=middle;whiteSpace=wrap;rounded=0;rotation=-51;" parent="1" vertex="1">
          <mxGeometry x="420" y="380" width="50" height="30" as="geometry" />
        </mxCell>
        <mxCell id="kAhJ4lf6lbI_TRl07def-14" value="&lt;font style=&quot;font-size: 20px;&quot; face=&quot;CMU Sans Serif&quot;&gt;&lt;b&gt;r&lt;/b&gt;&lt;/font&gt;" style="text;html=1;strokeColor=none;fillColor=none;align=center;verticalAlign=middle;whiteSpace=wrap;rounded=0;rotation=-20;" parent="1" vertex="1">
          <mxGeometry x="460" y="420" width="40" height="30" as="geometry" />
        </mxCell>
        <mxCell id="kAhJ4lf6lbI_TRl07def-15" value="&lt;font style=&quot;font-size: 20px;&quot; face=&quot;CMU Sans Serif&quot;&gt;&lt;b&gt;A&#39;&lt;/b&gt;&lt;/font&gt;" style="text;html=1;strokeColor=none;fillColor=none;align=center;verticalAlign=middle;whiteSpace=wrap;rounded=0;rotation=0;" parent="1" vertex="1">
          <mxGeometry x="470" y="330" width="20" height="30" as="geometry" />
        </mxCell>
        <mxCell id="kAhJ4lf6lbI_TRl07def-16" value="&lt;font style=&quot;font-size: 20px;&quot; face=&quot;CMU Sans Serif&quot;&gt;&lt;b&gt;A&lt;/b&gt;&lt;/font&gt;" style="text;html=1;strokeColor=none;fillColor=none;align=center;verticalAlign=middle;whiteSpace=wrap;rounded=0;rotation=0;" parent="1" vertex="1">
          <mxGeometry x="530" y="390" width="20" height="30" as="geometry" />
        </mxCell>
        <mxCell id="I5e1w81dJk_P3jxY2xG6-1" value="" style="verticalLabelPosition=bottom;verticalAlign=top;html=1;shape=mxgraph.basic.arc;startAngle=0.02109623157942068;endAngle=0.43981678132419383;dashed=1;strokeWidth=3;dashPattern=1 1;" vertex="1" parent="1">
          <mxGeometry x="460" y="450" width="30" height="30" as="geometry" />
        </mxCell>
        <mxCell id="I5e1w81dJk_P3jxY2xG6-2" value="&lt;font style=&quot;font-size: 20px;&quot; face=&quot;CMU Sans Serif&quot;&gt;ϕ&lt;/font&gt;" style="text;html=1;strokeColor=none;fillColor=none;align=center;verticalAlign=middle;whiteSpace=wrap;rounded=0;" vertex="1" parent="1">
          <mxGeometry x="495" y="440" width="20" height="30" as="geometry" />
        </mxCell>
      </root>
    </mxGraphModel>
  </diagram>
</mxfile>
